<?xml version="1.0" standalone="no"?><!DOCTYPE svg PUBLIC "-//W3C//DTD SVG 1.1//EN" "http://www.w3.org/Graphics/SVG/1.1/DTD/svg11.dtd"><svg t="1638281331100" class="icon" viewBox="0 0 1484 1024" version="1.1" xmlns="http://www.w3.org/2000/svg" p-id="6139" xmlns:xlink="http://www.w3.org/1999/xlink" width="185.5" height="128"><defs><style type="text/css"></style></defs><path d="M247.9616 994.56L0 0h195.5584l181.4272 727.7824L548.352 0h172.6976l162.6368 723.7376L1074.5344 0h143.1296L956.928 994.56h-197.5808l-153.216-682.0864-160.5888 682.0864H247.9616zM1292.288 588.8c47.3088 0 86.7328 12.3904 117.1456 37.1712 29.2864 23.6544 46.7456 56.32 52.9408 96.8704h-64.2048c-6.7584-26.4704-19.1488-45.6192-37.7344-58.0096-18.0224-12.3904-41.1136-18.0224-69.2736-18.0224-42.24 0-73.7792 14.08-95.1808 43.3664-19.712 25.9072-29.2864 61.952-29.2864 108.1344 0 47.3088 9.5744 83.9168 28.7232 109.2608 20.8384 27.0336 53.504 41.1136 97.4336 41.1136 28.7232 0 52.3776-7.3216 70.4-20.8384 19.1488-15.2064 32.6656-38.2976 40.5504-68.7104h64.2048c-9.0112 47.3088-29.8496 83.9168-63.0784 110.3872-30.976 24.7808-68.1472 37.1712-111.5136 37.1712-67.0208 0-117.1456-21.4016-149.8112-63.0784C1114.88 907.5712 1100.8 859.136 1100.8 798.3104c0-59.6992 14.6432-108.6976 44.4928-145.8688C1179.0848 609.6384 1228.0832 588.8 1292.288 588.8z" fill="#82529d" p-id="6140"></path></svg>